<svg width="20" height="20" viewBox="0 0 20 20" fill="none" xmlns="http://www.w3.org/2000/svg">
<path fill-rule="evenodd" clip-rule="evenodd" d="M14.1925 2.05764C14.2507 2.1157 14.2969 2.18467 14.3284 2.2606C14.3599 2.33653 14.3761 2.41793 14.3761 2.50014C14.3761 2.58235 14.3599 2.66375 14.3284 2.73968C14.2969 2.81561 14.2507 2.88458 14.1925 2.94264L7.13377 10.0001L14.1925 17.0576C14.3099 17.175 14.3758 17.3342 14.3758 17.5001C14.3758 17.6661 14.3099 17.8253 14.1925 17.9426C14.0752 18.06 13.916 18.1259 13.75 18.1259C13.584 18.1259 13.4249 18.06 13.3075 17.9426L5.80752 10.4426C5.74931 10.3846 5.70314 10.3156 5.67163 10.2397C5.64012 10.1638 5.6239 10.0824 5.6239 10.0001C5.6239 9.91793 5.64012 9.83653 5.67163 9.7606C5.70314 9.68467 5.74931 9.6157 5.80752 9.55764L13.3075 2.05764C13.3656 1.99944 13.4345 1.95326 13.5105 1.92175C13.5864 1.89024 13.6678 1.87402 13.75 1.87402C13.8322 1.87402 13.9136 1.89024 13.9896 1.92175C14.0655 1.95326 14.1345 1.99944 14.1925 2.05764Z" fill="#212529"/>
</svg>
