<svg width="21" height="20" viewBox="0 0 21 20" fill="none" xmlns="http://www.w3.org/2000/svg">
<path d="M10.5002 1.25C11.1633 1.25 11.7992 1.51339 12.268 1.98223C12.7368 2.45107 13.0002 3.08696 13.0002 3.75V6.25H8.00024V3.75C8.00024 3.08696 8.26363 2.45107 8.73247 1.98223C9.20131 1.51339 9.83719 1.25 10.5002 1.25ZM14.2502 6.25V3.75C14.2502 2.75544 13.8551 1.80161 13.1519 1.09835C12.4486 0.395088 11.4948 0 10.5002 0C9.50567 0 8.55185 0.395088 7.84858 1.09835C7.14532 1.80161 6.75024 2.75544 6.75024 3.75V6.25H4.70023C4.25133 6.2501 3.81735 6.41125 3.47718 6.70417C3.13701 6.99709 2.91322 7.40233 2.84648 7.84625L1.56274 16.4125C1.49622 16.857 1.52636 17.3106 1.6511 17.7423C1.77584 18.1741 1.99224 18.5739 2.28554 18.9144C2.57885 19.2549 2.94215 19.5282 3.35067 19.7155C3.75919 19.9029 4.20331 19.9999 4.65273 20H16.3465C16.796 20.0001 17.2403 19.9032 17.649 19.7159C18.0576 19.5287 18.4211 19.2554 18.7145 18.9149C19.008 18.5744 19.2245 18.1745 19.3493 17.7426C19.4741 17.3108 19.5043 16.8571 19.4377 16.4125L18.1527 7.84625C18.086 7.40254 17.8624 6.99747 17.5225 6.70458C17.1826 6.41169 16.7489 6.2504 16.3002 6.25H14.2502ZM13.0002 7.5V9.375C13.0002 9.54076 13.0661 9.69973 13.1833 9.81694C13.3005 9.93415 13.4595 10 13.6252 10C13.791 10 13.95 9.93415 14.0672 9.81694C14.1844 9.69973 14.2502 9.54076 14.2502 9.375V7.5H16.299C16.4486 7.50015 16.5932 7.55397 16.7065 7.65168C16.8198 7.7494 16.8943 7.88452 16.9165 8.0325L18.2015 16.5963C18.2416 16.863 18.2237 17.1353 18.1489 17.3945C18.0742 17.6537 17.9444 17.8937 17.7684 18.0982C17.5924 18.3026 17.3744 18.4667 17.1292 18.5792C16.8841 18.6917 16.6175 18.7499 16.3477 18.75H4.65273C4.38298 18.7499 4.11641 18.6917 3.87123 18.5792C3.62605 18.4667 3.40802 18.3026 3.23205 18.0982C3.05607 17.8937 2.92629 17.6537 2.85155 17.3945C2.77681 17.1353 2.75888 16.863 2.79899 16.5963L4.08399 8.0325C4.1061 7.88473 4.18041 7.74978 4.29347 7.65209C4.40652 7.5544 4.55082 7.50045 4.70023 7.5H6.75024V9.375C6.75024 9.54076 6.81608 9.69973 6.93329 9.81694C7.0505 9.93415 7.20947 10 7.37524 10C7.541 10 7.69997 9.93415 7.81718 9.81694C7.93439 9.69973 8.00024 9.54076 8.00024 9.375V7.5H13.0002Z" fill="white"/>
</svg>
